HIERARCHY
ROOT root
{
	OFFSET	0	13.1	24.9
	CHANNELS 6  Xposition Yposition Zposition Xrotation Yrotation Zrotation
	JOINT spine_1
	{
		OFFSET	0	9.99999	0
		CHANNELS 3  Xrotation Yrotation Zrotation
		JOINT spine_2
		{
			OFFSET	0	112	-10
			CHANNELS 3  Xrotation Yrotation Zrotation
			JOINT spine_3
			{
				OFFSET	0	206.5	19.3
				CHANNELS 3  Xrotation Yrotation Zrotation
				JOINT spine_4
				{
					OFFSET	0	110.4	14.6
					CHANNELS 3  Xrotation Yrotation Zrotation
					JOINT neck_1
					{
						OFFSET	0	71.8	-50.3
						CHANNELS 3  Xrotation Yrotation Zrotation
						JOINT neck_2
						{
							OFFSET	0	86.2	-25.8
							CHANNELS 3  Xrotation Yrotation Zrotation
							JOINT head_ee
							{
								OFFSET	0	179.8	-8.7
								CHANNELS 3  Xrotation Yrotation Zrotation
								End Site
								{
									OFFSET	1	0	0
								}
							}
						}
					}
					JOINT left_clavicle
					{
						OFFSET	-43.2	22.4	-70.8
						CHANNELS 3  Xrotation Yrotation Zrotation
						JOINT left_shoulder
						{
							OFFSET	-93.9	-5.79999	48.7
							CHANNELS 3  Xrotation Yrotation Zrotation
							JOINT left_elbow
							{
								OFFSET	-291.4	-30.8	15.2
								CHANNELS 3  Xrotation Yrotation Zrotation
								JOINT left_lowarm_twist
								{
									OFFSET	-110.7	-3.89999	13.6
									CHANNELS 3  Xrotation Yrotation Zrotation
									JOINT left_hand
									{
										OFFSET	-110.7	-3.89999	13.6
										CHANNELS 3  Xrotation Yrotation Zrotation
										JOINT left_ee
										{
											OFFSET	-80.8	-5.10001	12.1
											CHANNELS 3  Xrotation Yrotation Zrotation
											End Site
											{
												OFFSET	1	0	0
											}
										}
									}
								}
							}
						}
					}
					JOINT right_clavicle
					{
						OFFSET	43.2	22.4	-70.8
						CHANNELS 3  Xrotation Yrotation Zrotation
						JOINT right_shoulder
						{
							OFFSET	93.9	-5.79999	48.7
							CHANNELS 3  Xrotation Yrotation Zrotation
							JOINT right_elbow
							{
								OFFSET	291.4	-30.8	15.2
								CHANNELS 3  Xrotation Yrotation Zrotation
								JOINT right_lowarm_twist
								{
									OFFSET	110.7	-3.89999	13.6
									CHANNELS 3  Xrotation Yrotation Zrotation
									JOINT right_hand
									{
										OFFSET	110.7	-3.89999	13.6
										CHANNELS 3  Xrotation Yrotation Zrotation
										JOINT right_ee
										{
											OFFSET	80.8	-5.10001	12.1
											CHANNELS 3  Xrotation Yrotation Zrotation
											End Site
											{
												OFFSET	1	0	0
											}
										}
									}
								}
							}
						}
					}
				}
			}
		}
	}
	JOINT left_hip
	{
		OFFSET	-82.8	-127.5	0.300001
		CHANNELS 3  Xrotation Yrotation Zrotation
		JOINT left_knee
		{
			OFFSET	-28.2	-396.7	2.2
			CHANNELS 3  Xrotation Yrotation Zrotation
			JOINT left_ankle
			{
				OFFSET	-11.7	-411.3	35.4
				CHANNELS 3  Xrotation Yrotation Zrotation
				JOINT left_toes
				{
					OFFSET	0	-60	-88.6
					CHANNELS 3  Xrotation Yrotation Zrotation
					JOINT left_foot_ee
					{
						OFFSET	-22.5	-16.5	-42.2
						CHANNELS 3  Xrotation Yrotation Zrotation
						End Site
						{
							OFFSET	1	0	0
						}
					}
				}
			}
		}
	}
	JOINT right_hip
	{
		OFFSET	82.8	-127.5	0.300001
		CHANNELS 3  Xrotation Yrotation Zrotation
		JOINT right_knee
		{
			OFFSET	28.2	-396.7	2.2
			CHANNELS 3  Xrotation Yrotation Zrotation
			JOINT right_ankle
			{
				OFFSET	11.7	-411.3	35.4
				CHANNELS 3  Xrotation Yrotation Zrotation
				JOINT right_toes
				{
					OFFSET	0	-60	-88.6
					CHANNELS 3  Xrotation Yrotation Zrotation
					JOINT right_foot_ee
					{
						OFFSET	22.5	-16.5	-42.2
						CHANNELS 3  Xrotation Yrotation Zrotation
						End Site
						{
							OFFSET	1	0	0
						}
					}
				}
			}
		}
	}
}
MOTION
Frames: 6
Frame Time: 0.02
3115.71 741.896 -593.747 161.271 -80.8487 170.427 0.404768 -0.562681 -3.57177 0.411803 -0.334411 -3.60028 0.435777 0.402739 -3.59329 0.417802 -0.169426 -3.61179 -8.4036 7.46444 5.90757 -8.32822 9.82024 7.48984 -0.0 0.0 -0.0 5.01898 3.7222 9.79869 -28.1178 -19.0107 72.675 0.62865 -17.2975 0.0956224 54.0357 -1.27263 -6.53136 0.814437 8.32162 8.75931 -0.0 0.0 -0.0 -2.48583 -1.72303 4.52985 0.397174 28.6525 -67.3192 1.72146 40.4528 -0.634318 15.6228 -0.283527 1.96937 -0.761882 -4.57188 3.09875 0.0 0.0 0.0 7.81181 0.511142 -12.944 -13.8704 0.318291 2.0996 17.0821 27.1389 -2.51019 20.5142 -0.0 -0.0 -0.0 0.0 -0.0 1.65404 17.1944 -15.6186 0.194497 0.00805776 0.0287594 25.2121 -10.542 3.36303 -26.5768 0.0 0.0 0.0 0.0 0.0 
3120.79 741.995 -596.843 160.68 -81.9895 169.396 0.468378 -0.620148 -3.71027 0.475954 -0.382966 -3.74216 0.50408 0.379451 -3.74251 0.484603 -0.215942 -3.75548 -8.06288 7.15055 7.15786 -7.93651 8.29295 8.63179 -0.0 0.0 -0.0 4.12991 4.31103 8.15103 -26.9165 -19.2866 73.6108 0.785285 -21.2563 0.147364 51.6413 -1.0888 -6.28589 0.571112 11.4049 8.36368 -0.0 0.0 -0.0 -2.48463 -1.53073 4.55949 -0.73239 28.4553 -66.9079 1.72605 40.5281 -0.637298 16.4458 -0.28347 2.07448 -1.30632 -5.63709 6.21055 0.0 0.0 0.0 7.05844 0.899116 -11.9495 -12.5148 0.30972 1.8918 17.4296 24.3839 -2.51737 21.7028 -0.0 -0.0 -0.0 0.0 -0.0 2.0211 15.8592 -14.9602 -1.62333 -0.0634284 -0.241042 21.5182 -10.2636 2.92189 -26.6735 0.0 0.0 0.0 0.0 0.0 
3122.63 738.669 -600.654 167.002 -81.3687 175.575 0.70867 -0.379202 -3.75359 0.716497 -0.139756 -3.77008 0.72799 0.609249 -3.72322 0.708649 0.0140252 -3.77264 -7.60282 7.5702 9.21728 -7.38142 7.51635 10.7358 -0.0 0.0 -0.0 4.03965 4.7008 7.99799 -26.3641 -19.2371 73.56 0.875781 -23.4527 0.181789 49.0338 -0.900512 -6.01018 0.154708 16.4662 7.67032 -0.0 0.0 -0.0 -2.61931 0.581795 5.17084 -1.30468 29.1919 -67.9438 1.58981 38.2192 -0.550851 16.257 -0.283617 2.05037 -1.63717 -6.55175 7.96933 0.0 0.0 0.0 7.33195 1.59261 -11.3042 -14.1888 0.319591 2.14844 22.1981 22.5952 -3.11477 20.6445 -0.0 -0.0 -0.0 0.0 -0.0 2.50274 14.4518 -14.0878 -2.31919 -0.088519 -0.344887 20.5873 -7.75382 2.80343 -28.483 0.0 0.0 0.0 0.0 0.0 
3125.47 739.258 -602.947 168.033 -82.2897 176.337 0.858732 -0.398789 -3.84397 0.866937 -0.153565 -3.86152 0.879386 0.603729 -3.81719 0.859057 -0.00623419 -3.86457 -7.67924 7.56011 9.26785 -7.45539 7.47702 10.7863 -0.0 0.0 -0.0 3.95497 5.126 7.85771 -24.5924 -17.5478 74.2483 0.895713 -23.927 0.189797 48.0509 -0.832837 -5.9041 0.234414 16.0644 8.01113 -0.0 0.0 -0.0 -2.7924 0.546048 5.50446 -3.34547 29.2444 -67.5662 1.56308 37.748 -0.534399 17.7179 -0.280411 2.23694 -1.45049 -7.57401 6.27168 0.0 0.0 0.0 7.42223 2.75482 -10.6801 -12.5613 0.310096 1.89892 17.0906 21.5548 -2.43789 21.1695 -0.0 -0.0 -0.0 0.0 -0.0 2.54969 12.9302 -13.5919 -3.38012 -0.124338 -0.503766 16.8433 -8.91652 2.33281 -28.7614 0.0 0.0 0.0 0.0 0.0 
3126.13 738.728 -602.302 173.398 -81.1282 -178.008 1.03492 -0.373973 -3.87379 1.04326 -0.126906 -3.8897 1.05358 0.623758 -3.84153 1.03299 0.00970978 -3.89176 -7.52804 8.62543 9.53946 -7.29413 9.23928 11.2672 -0.0 0.0 -0.0 3.39906 4.75133 6.81533 -21.7883 -14.5309 75.6815 0.776118 -21.03 0.144057 46.5574 -0.733525 -5.74075 -0.404057 17.0307 4.45772 -0.0 0.0 -0.0 -2.72316 2.28389 5.65674 -4.37188 30.0363 -68.2153 1.48195 36.2806 -0.485553 19.2376 -0.272031 2.43085 -1.20023 -6.13698 5.28715 0.0 0.0 0.0 7.4168 3.25915 -11.2818 -11.7864 0.303085 1.78024 19.5541 20.5614 -2.74989 20.3122 -0.0 -0.0 -0.0 0.0 -0.0 3.00235 11.9498 -13.6399 -3.25498 -0.120266 -0.484992 17.3921 -5.85369 2.40315 -28.8327 0.0 0.0 0.0 0.0 0.0 
3127.4 738.411 -604.446 175.203 -81.8355 -176.069 1.16048 -0.252853 -3.92582 1.16905 -0.00272706 -3.93394 1.17053 0.746532 -3.86257 1.14974 0.127636 -3.93187 -7.70467 8.72773 10.0338 -7.44497 9.11396 11.7845 -0.0 0.0 -0.0 3.28869 5.41445 6.64606 -20.1578 -14.0572 75.6164 0.784389 -21.2342 0.147039 44.7397 -0.61847 -5.53858 -0.413467 17.8257 4.72295 -0.0 0.0 -0.0 -2.69896 2.99496 5.72469 -5.18938 30.9861 -68.9797 1.32641 33.3059 -0.396771 21.3185 -0.252219 2.69589 -0.898874 -10.4963 1.39947 0.0 0.0 0.0 7.88506 3.86876 -11.5387 -12.3485 0.30833 1.86632 22.9892 18.8817 -3.1635 15.8591 -0.0 -0.0 -0.0 0.0 -0.0 2.72434 9.65001 -13.3066 -2.72735 -0.102647 -0.405933 15.707 -2.37966 2.19364 -28.0446 0.0 0.0 0.0 0.0 0.0 
